<svg version="1.1" id="Layer_1" xmlns="http://www.w3.org/2000/svg" xmlns:xlink="http://www.w3.org/1999/xlink" x="0px" y="0px" viewBox="0 0 380 108.6" enable-background="new 0 0 380 108.6" xml:space="preserve">
  <g id="Blue">
    <g>
      <g>
        <path fill="#1F4598" d="M272.7,72.8c-7.5,0-15.2-2.9-19.5-5.4l-0.7-0.4l0.7-2.5c0.6-1.9,1.1-3.8,1.7-5.7c0.1-0.3,0.5-1.4,1.4-1.4
          l0.1,0c0.8,0.1,1.2,1.2,1.3,1.6c0.8,5.1,4.3,7.1,7.8,8.5c2.7,1.1,5.3,1.6,7.9,1.6c2.6,0,5.2-0.6,7.7-1.7c2.9-1.3,4.5-3.3,5.1-6.1
          c0.6-3.4-0.6-6.1-3.4-7.6c-2.2-1.1-4.5-1.6-6.9-2.1c-0.7-0.2-1.5-0.3-2.3-0.5c-0.7-0.2-1.4-0.3-2.1-0.5c-3.1-0.7-6.3-1.4-9.3-3
          c-3.3-1.8-5.4-4.9-5.9-8.5c-0.5-3.6,0.9-7.3,3.6-10.1c2.6-2.6,5.8-4.2,9.9-4.9c1.8-0.3,3.7-0.5,5.5-0.5c5.6,0,11,1.4,16.6,4.4
          l0.7,0.4l-0.3,0.8c-0.3,0.8-0.5,1.6-0.8,2.4c-0.5,1.7-1.1,3.4-1.8,5l-0.2,0.5l-1.2,0l-0.2-0.7c-0.1-0.2-0.1-0.4-0.1-0.6
          c0-0.1-0.1-0.3-0.1-0.5c-0.6-2.5-2.3-4.5-5.2-5.8c-3.3-1.5-6.2-2.3-9-2.3c-1.8,0-3.5,0.3-5.2,0.9c-2.5,0.9-4.1,2.6-4.7,5.1
          c-0.8,3.2,0.1,5.7,2.8,7.3c2,1.2,4.3,1.8,6.7,2.3c1,0.2,2.1,0.5,3.1,0.7c2.5,0.5,5.1,1.1,7.6,1.7c0.7,0.2,1.4,0.4,2,0.7l0.3,0.1
          c4,1.6,6.5,4.8,7.2,9c0.6,4.4-1,9-4.2,11.8c-3.1,2.7-6.9,4.5-11.9,5.4C275.8,72.7,274.3,72.8,272.7,72.8"></path>
        <path fill="#1F4598" d="M194.5,71.7l0-1c0-1.3,0.8-1.7,1.1-1.8c0,0,0.1,0,0.1,0c1.2-0.6,1.9-1.8,2.1-3.6c0-0.3,0-0.6,0-1
          c0-3.7,0-7.4,0-11.1c0-8.2,0-16.7,0-25c0-2.3-0.1-3.7-2.2-4.2l-3.7-1l3.7-0.9c2.7-0.6,5.5-1.8,7.4-2.7l1.2-0.6v20
          c1.3-1.9,2.8-3.4,4.7-4.5c2.1-1.2,4.5-1.8,7.2-1.8c4.8,0,9.4,2.1,11.8,5.4c1.7,2.4,2.6,5.2,2.6,8.8l0,4.6c0,4,0.1,8.1,0.1,12.1
          c0,0.4,0,0.7,0,1l0,0.3c0.1,2.2,0.2,3.1,0.9,3.7c0.2,0.1,0.4,0.2,0.6,0.3c0.5,0.3,1.3,0.7,1.4,1.8l0.1,1.1l-1,0
          c-0.6,0-1.2,0-1.8,0c-1,0-2,0-3,0c-1.8,0-4.1,0-6.3,0.1l-0.9,0l0-1c0-0.5,0.2-1.2,1.1-1.7l0,0c1.4-0.8,1.8-1.7,1.9-3.7
          c0-1.3,0-2.7,0.1-4c0.1-5.1,0.2-10.4-0.3-15.6c-0.1-0.8-0.2-1.7-0.6-2.9c-1-3.7-3-5.8-6.1-6.4c-0.5-0.1-1-0.2-1.6-0.2
          c-3.1,0-6.1,1.5-8,4.1c-1.8,2.4-2.7,5.3-2.8,8.5c-0.1,5.1-0.1,10.1,0,14.8c0,2.6,0.5,4.1,1.5,4.9c0,0,0.1,0,0.1,0.1
          c0.4,0.2,1.3,0.7,1.4,1.9l0.1,1l-1,0c-1,0-2,0-2.9,0c-2.8,0-5.4,0-8.2,0.1L194.5,71.7z"></path>
        <path fill="#1F4598" d="M101.5,72.8c-0.2,0-0.4-0.1-0.6-0.2c-0.6-0.3-1-0.8-1.3-1.2l-0.1-0.1c-9.9-13-20.2-25.5-30.7-37.2
          c-0.1-0.2-0.3-0.3-0.5-0.5l0,20.1L67.7,54c-0.5,0.2-1.2,0.4-2,0.4c-0.1,0-0.3,0-0.4,0l-0.8-0.1v-0.9c0-5.8,0-13.9,0-19
          c0-1.1-0.1-2.2-0.2-3c-0.2-1.7-1-2.9-2.4-3.5C61,27.5,61,26.4,61,26.1v-1l1,0c0.4,0,0.4,0,0.5,0l0.2,0c0.1,0,2,0,4.1,0
          c1.8,0,3.3,0,4.3-0.1c0.6,0,1.2,0.3,1.5,0.9c2.6,4,5.8,7.6,8.9,11.1c1.3,1.5,2.7,3.1,4,4.7c3.1,3.7,6.3,7.5,9.4,11.1
          c1.4,1.7,2.9,3.4,4.3,5c0-6.8,0-14,0-21.1c0-2.2-0.3-4.1-1-5.7c-0.7-1.7-1.6-2.7-2.8-3.2c-0.3-0.1-0.5-0.3-0.6-0.4
          c-0.3-0.2-0.5-0.6-0.5-0.9l-0.1-0.3l0.3-0.4c0.3-0.4,0.4-0.6,6.9-0.6c1.3,0,2.6,0,3.6,0c0.5,0,0.9,0,1.2,0c0.5,0,1.2,0,1.3,0.9
          c0.1,0.9-0.8,1.3-1.3,1.6c0,0-0.1,0-0.1,0c-1.4,0.7-2.2,2-2.7,4.6c-0.2,1.2-0.3,2.5-0.3,3.8l0,3.2c0,8.7,0,17.7,0,26.6
          c0,0.5,0,1,0,1.5c0,1.2,0.1,2.5-0.1,3.8C102.9,72.2,102.2,72.8,101.5,72.8"></path>
        <path fill="#1F4598" d="M330.6,72.6c-3.7,0-6.9-1-9.8-3.1c-4.5-3.3-5.9-9.4-3.3-14.3c1.1-2,2.8-3.6,5.2-4.8
          c4.8-2.4,9.8-2.9,14.5-3.1c0.7,0,1.4,0,2.2,0c0.6,0,1.2,0,1.8,0c0.4,0,0.7,0,1.1,0c0-2.6-0.3-4.6-1-6.5c-1-2.6-2.9-4.1-6-4.5
          c-3.2-0.4-6.3,0.2-9.2,1.8c-1.8,1-3.3,2.5-3.8,3.7c-0.1,0.3-0.3,0.7-0.4,1.2c0,0,0,0.1,0,0.1c-0.1,0.6-0.2,1.1-0.7,1.4l-1,0.7
          l-2.4-9.1l0.7-0.3c2.3-1.2,4.9-2.1,7.7-2.7c2.4-0.5,4.7-0.8,6.9-0.8c1.9,0,3.7,0.2,5.4,0.6c7.2,1.5,10.6,6,10.6,14.2
          c0,2.4,0,4.9,0,7.3c0,2.8,0,5.6,0,8.4c0,0.9,0.1,1.8,0.3,3c0.3,2,0.8,2.9,1.8,3.3l0.8,0.3l-0.3,0.9c-0.3,1.1-1,1.2-1.4,1.2h0
          c0,0-0.1,0-0.1,0c-1.9-0.1-3.3-0.1-4.6,0c-0.1,0-0.1,0-0.2,0c-1.4,0-1.6-1.4-1.7-1.9c-0.2-1.2-0.4-2.3-0.6-3.5
          c-2.3,3.6-5.8,5.7-10.3,6.2C332.2,72.5,331.4,72.6,330.6,72.6 M339.7,51c-0.9,0-1.6,0-2.3,0c-1.4,0-2.6,0.1-3.7,0.3
          c-2.5,0.4-5.1,1-7.2,3c-1.6,1.5-2.5,3.8-2.5,6.4c0,2.5,1,4.8,2.7,6.2c1.6,1.4,3.6,2.1,5.6,2.1c4.2,0,7.9-2.9,9.1-7.1
          c1-3.4,0.9-6.9,0.9-10.6c0-0.1,0-0.2,0-0.3c-0.3,0-0.6,0-0.9,0C340.9,51,340.3,51,339.7,51"></path>
        <path fill="#1F4598" d="M127.5,72.6c-5,0-9.9-2-13.7-5.7c-4.3-4.2-6.4-10.2-5.7-16.5c0.7-6.4,4.3-12.1,9.5-15.2
          c3.1-1.8,6.5-2.7,9.9-2.7l0.1,0c7.9,0.4,13.7,4,17.2,10.7c4.5,8.6,2.1,19.5-5.5,25.4C135.8,71.2,131.7,72.6,127.5,72.6
           M128.4,37.1c-0.7,0-1.4,0-1.9,0.1c-3.8,0.6-5.8,2.1-7.6,5.5c-0.3,0.5-0.5,1-0.7,1.6c-0.4,1.2-0.8,2.6-1,7.1c0,1.3,0,4.1,0.3,6.2
          c0.1,0.6,0.2,1.2,0.2,1.3c1.1,5.4,3.9,8.3,8.6,9.1c0.7,0.1,1.4,0.2,2.1,0.2h0c0.7,0,1.4-0.1,2-0.2c3.4-0.6,6.2-1.6,8.1-8.3
          c1-4.2,1-8.4,0-13.4c-1.1-5.4-3.3-8-7.6-9C130.3,37.2,129.4,37.1,128.4,37.1"></path>
        <path fill="#1F4598" d="M163.6,71.7l-1,0c-1.9-0.1-3.8-0.1-5.9-0.1c-1.9,0-3.9,0-6.4,0.1l-0.9,0l0-1c0-1.3,0.7-1.7,1.2-1.9
          c1.7-0.7,2.1-2.4,2.3-5.2c0.1-1.1,0.1-2.2,0.1-3.4c0-4.8,0-9.6,0-14.3c0-1.8,0-3.6,0-5.4c0-1.8-0.2-2.1-1.7-2.8
          c-0.4-0.2-0.7-0.4-1.2-1.1l-0.7-1.1l9.6-2.9v7.4c2.8-4.9,6.7-7.4,11.7-7.4c0.1,0,0.3,0,0.4,0l1.2,0l-0.4,1.2
          c-0.4,1.2-0.7,2.4-1,3.6c-0.3,1.2-0.7,2.3-1,3.4l-0.5,1.5l-1-1.1l0,0c0,0-0.1-0.1-0.6-0.5c-0.7-0.6-1.6-0.9-2.5-0.9
          c-1.3,0-2.5,0.6-3.2,1.6c-1.1,1.6-1.7,3.4-2.1,6.1c-0.7,5.1-0.8,10.6-0.3,17.3c0.2,2.2,0.6,3.3,2.6,3.8l0.1,0
          c0.4,0.1,1.1,0.5,1.1,2L163.6,71.7z"></path>
        <path fill="#1F4598" d="M186.4,71.5c-0.5,0-1,0-1.5,0c-0.3,0-0.7,0-1.1,0c-2.1,0-3.4-1.2-4-3.5c-0.4-1.6-0.4-3.1-0.4-4.4
          c0-5.9,0-11.8,0-17.7l0-5.9c0-0.2,0-0.5,0-0.7c-0.5,0-1,0-1.5,0c-0.9,0-1.8,0-2.5,0l-1,0l0.1-1.1c0.2-1.4,1.1-1.9,1.5-2.2l0.1,0
          c3.6-2.2,5.9-5.2,6.9-9.1c0,0,0-0.1,0-0.1c0.1-0.5,0.4-1.6,1.8-1.6h0.9l0,10.3c0.9,0,1.8,0.1,2.7,0.1l1.4,0c0.4,0,0.8,0,1.2,0
          l0.9,0v1c0,0.3,0,0.7,0,1.1c0,0.3,0,0.5,0,0.8l0,1h-6.1c0,0.1,0,0.1,0,0.2c0,2.2,0,4.3,0,6.4c0,4.9-0.1,9.9,0.4,14.8
          c0.1,1.3,0.3,2.5,0.6,3.6c0.5,1.9,1.2,3.4,3.5,4.5l0.6,0.3l-0.1,0.7c-0.2,1.5-1.8,1.5-2.5,1.5c-0.2,0-0.3,0-0.5,0
          C187.4,71.5,186.9,71.5,186.4,71.5"></path>
        <path fill="#1F4598" d="M66.5,72.4c-2.4,0-4.8,0-5.8-0.1c-0.6,0-1-0.5-1.1-1.1c-0.1-0.6,0.2-1.2,0.8-1.4l0,0
          c2.3-0.9,3.5-2.8,3.9-6.4c0.3-2.4,0.2-4.2,0.2-6.2c0-1,0-1.9,0-3.1l0-0.8l0.7-0.1c0.2,0,0.4-0.1,0.7-0.1c0.2,0,0.5,0,0.7,0
          c0.3,0,0.6,0,0.8,0l0.9-0.1l0,1c0,1.1,0,2.1,0,3.1c0,2.3-0.1,4.2,0.2,6.9c0.4,3.1,1.5,4.9,3.5,5.9c0.1,0,0.2,0.1,0.3,0.2
          c0.3,0.3,0.4,0.8,0.3,1.3c-0.1,0.5-0.5,0.8-1,0.8C70.9,72.4,69,72.4,66.5,72.4"></path>
        <path fill="#1F4598" d="M307,71.5c-0.5,0-1,0-1.5,0c-0.3,0-0.7,0-1.1,0c-2.1,0-3.4-1.2-4-3.5c-0.4-1.6-0.4-3.1-0.4-4.4
          c0-5.9,0-11.8,0-17.7l0-5.9c0-0.2,0-0.5,0-0.7c-0.5,0-1,0-1.5,0c-0.9,0-1.8,0-2.5,0l-1,0l0.1-1.1c0.2-1.4,1.1-1.9,1.5-2.2l0.1,0
          c3.6-2.2,5.9-5.2,6.9-9.1c0,0,0-0.1,0-0.1c0.1-0.5,0.4-1.6,1.8-1.6h0.9l0,10.3c0.9,0,1.8,0.1,2.7,0.1l1.4,0c0.4,0,0.8,0,1.2,0
          l0.9,0v1c0,0.3,0,0.7,0,1.1c0,0.3,0,0.5,0,0.8l0,1h-6.1c0,0.1,0,0.1,0,0.2c0,2.2,0,4.3,0,6.4c0,4.9-0.1,9.9,0.4,14.8
          c0.1,1.3,0.3,2.5,0.6,3.6c0.5,1.9,1.2,3.4,3.5,4.5l0.7,0.3l-0.2,0.8c-0.4,1.4-1.4,1.4-2.3,1.4c-0.2,0-0.4,0-0.6,0
          C308,71.5,307.5,71.5,307,71.5"></path>
        <path fill="#1F4598" d="M370.3,71.9l-1,0c-1.9-0.1-3.8-0.1-5.9-0.1c-1.9,0-3.9,0-6.4,0.1l-0.9,0l0-1c0-1.3,0.7-1.7,1.2-1.9
          c1.7-0.7,2.1-2.4,2.3-5.2c0.1-1.1,0.1-2.2,0.1-3.4c0-4.8,0-9.6,0-14.3c0-1.8,0-3.6,0-5.4c0-1.8-0.2-2.1-1.7-2.8
          c-0.4-0.2-0.7-0.4-1.2-1.1l-0.7-1.1l9.6-2.9v7.4c2.8-4.9,6.7-7.4,11.7-7.4c0.1,0,0.3,0,0.4,0l1.2,0l-0.4,1.2
          c-0.4,1.2-0.7,2.4-1,3.6c-0.3,1.2-0.7,2.3-1,3.4l-0.4,1.5l-1-1.1l0,0c0,0-0.1-0.1-0.6-0.5c-0.7-0.6-1.6-0.9-2.5-0.9
          c-1.3,0-2.5,0.6-3.2,1.6c-1.1,1.6-1.7,3.4-2.1,6.1c-0.7,5.1-0.8,10.6-0.3,17.3c0.2,2.2,0.6,3.3,2.6,3.8l0.1,0
          c0.4,0.1,1.1,0.5,1.1,2L370.3,71.9z"></path>
      </g>
      <g>
        <path fill="#F7AE1A" d="M73.1,89.4h-2.4v-5.7c0-0.7,0-1.4,0-2.1c-0.2,0.4-0.4,0.8-0.5,1.1l-3.3,6.7h-1.2l-3.3-6.7
          c-0.2-0.4-0.4-0.7-0.5-1.1c0,0.8,0,1.5,0,2.1v5.7h-2.4V77.7h2.9l3.1,6.4c0.2,0.5,0.5,1.1,0.8,1.7c0.3-0.7,0.6-1.3,0.8-1.7
          l3.1-6.4h2.9V89.4z"></path>
        <path fill="#F7AE1A" d="M82.7,89.6c-0.7,0-1.4-0.1-1.9-0.2c-0.6-0.1-1.1-0.3-1.5-0.6c-0.4-0.3-0.8-0.6-1-0.9
          c-0.3-0.4-0.5-0.7-0.6-1.2c-0.1-0.3-0.2-0.6-0.2-1c0-0.3-0.1-0.7-0.1-1v-7.1h2.4v7.2c0,0.2,0,0.4,0.1,0.7c0,0.2,0.1,0.4,0.2,0.6
          c0.2,0.4,0.5,0.8,0.9,1c0.5,0.3,1.1,0.4,1.9,0.4c0.4,0,0.8,0,1.1-0.1c0.3-0.1,0.6-0.2,0.8-0.3c0.2-0.1,0.4-0.3,0.6-0.5
          c0.1-0.2,0.3-0.4,0.3-0.6c0.1-0.2,0.1-0.3,0.1-0.5c0-0.2,0-0.4,0-0.6v-7.2h2.4v7.1c0,0.3,0,0.6-0.1,0.8c0,0.3-0.1,0.6-0.2,0.9
          c-0.1,0.5-0.3,0.9-0.6,1.2c-0.3,0.4-0.6,0.7-1.1,1c-0.4,0.3-0.9,0.5-1.5,0.6C84.1,89.5,83.4,89.6,82.7,89.6"></path>
        <polygon fill="#F7AE1A" points="97.6,89.4 95.2,89.4 95.2,79.8 91,79.8 91,77.7 101.9,77.7 101.9,79.8 97.6,79.8       "></polygon>
        <path fill="#F7AE1A" d="M110.1,89.6c-0.7,0-1.4-0.1-1.9-0.2c-0.6-0.1-1.1-0.3-1.5-0.6c-0.4-0.3-0.8-0.6-1-0.9
          c-0.3-0.4-0.5-0.7-0.6-1.2c-0.1-0.3-0.2-0.6-0.2-1c0-0.3-0.1-0.7-0.1-1v-7.1h2.4v7.2c0,0.2,0,0.4,0.1,0.7c0,0.2,0.1,0.4,0.2,0.6
          c0.2,0.4,0.5,0.8,0.9,1c0.5,0.3,1.1,0.4,1.9,0.4c0.4,0,0.8,0,1.1-0.1c0.3-0.1,0.6-0.2,0.8-0.3c0.2-0.1,0.4-0.3,0.6-0.5
          c0.1-0.2,0.3-0.4,0.3-0.6c0.1-0.2,0.1-0.3,0.1-0.5c0-0.2,0-0.4,0-0.6v-7.2h2.4v7.1c0,0.3,0,0.6-0.1,0.8c0,0.3-0.1,0.6-0.2,0.9
          c-0.1,0.5-0.3,0.9-0.6,1.2c-0.3,0.4-0.6,0.7-1.1,1c-0.4,0.3-0.9,0.5-1.5,0.6C111.6,89.5,110.9,89.6,110.1,89.6"></path>
        <path fill="#F7AE1A" d="M131.2,89.4h-2.6l-1.5-3.3h-4.8l-1.5,3.3h-2.6l5.6-11.7h1.8L131.2,89.4z M123.2,84h2.9l-0.2-0.4
          c-0.4-0.9-0.8-1.8-1.3-2.9c-0.4,1-0.9,2-1.3,2.8L123.2,84z"></path>
        <polygon fill="#F7AE1A" points="142.5,89.4 133.9,89.4 133.9,77.7 136.2,77.7 136.2,87.3 142.5,87.3       "></polygon>
        <rect x="152.2" y="77.7" fill="#F7AE1A" width="2.4" height="11.7"></rect>
        <path fill="#F7AE1A" d="M170.3,89.4h-2.1l-5.1-6.2c-0.6-0.7-1.1-1.3-1.6-2c0,0.7,0,1.4,0,2.2v6h-2.4V77.7h2.1l5.1,6.2
          c0.5,0.6,1.1,1.3,1.6,2c0-0.6,0-1.3,0-2v-6.2h2.4V89.4z"></path>
        <path fill="#F7AE1A" d="M178.3,89.6c-0.3,0-0.7,0-1.1-0.1c-0.4,0-0.7-0.1-1-0.1c-0.3-0.1-0.6-0.1-0.9-0.2
          c-0.3-0.1-0.5-0.2-0.7-0.3l-0.2-0.1v-2.2l0.6,0.2c0.2,0.1,0.5,0.2,0.7,0.3c0.3,0.1,0.6,0.1,0.9,0.2c0.3,0.1,0.6,0.1,0.9,0.1
          c0.3,0,0.6,0,0.8,0c0.4,0,0.8,0,1.2-0.1c0.4-0.1,0.7-0.2,1-0.3c0.2-0.1,0.4-0.3,0.6-0.5c0.1-0.2,0.2-0.4,0.2-0.7
          c0-0.2,0-0.4-0.1-0.5c-0.1-0.2-0.3-0.3-0.5-0.4c-0.2-0.1-0.5-0.2-0.8-0.3c-0.3-0.1-0.7-0.2-1.1-0.2c-0.5-0.1-1-0.2-1.5-0.3
          c-0.5-0.1-1-0.3-1.4-0.5c-0.4-0.2-0.8-0.6-1-1c-0.3-0.4-0.4-0.9-0.4-1.6c0-0.6,0.1-1.2,0.4-1.7c0.3-0.5,0.6-0.8,1.1-1.1
          c0.4-0.3,1-0.5,1.5-0.6c0.6-0.1,1.2-0.2,1.8-0.2c0.7,0,1.4,0.1,2,0.2c0.6,0.1,1.2,0.3,1.7,0.4l0.3,0.1v2.2l-0.5-0.2
          c-0.5-0.2-1-0.3-1.6-0.4c-0.5-0.1-1.1-0.2-1.7-0.2c-0.4,0-0.8,0-1.2,0.1c-0.3,0.1-0.6,0.2-0.8,0.3c-0.2,0.1-0.3,0.3-0.4,0.4
          c-0.1,0.2-0.1,0.4-0.1,0.6c0,0.2,0,0.4,0.1,0.5c0.1,0.2,0.3,0.3,0.5,0.4c0.2,0.1,0.5,0.2,0.8,0.3c0.3,0.1,0.7,0.2,1,0.2
          c0.5,0.1,1,0.2,1.5,0.3c0.5,0.1,1,0.3,1.4,0.6c0.4,0.2,0.8,0.6,1,1c0.3,0.4,0.4,1,0.4,1.6c0,0.7-0.2,1.2-0.4,1.7
          c-0.3,0.5-0.7,0.9-1.2,1.1c-0.5,0.3-1,0.5-1.7,0.6C179.8,89.5,179.1,89.6,178.3,89.6"></path>
        <path fill="#F7AE1A" d="M192.7,89.6c-0.7,0-1.4-0.1-1.9-0.2c-0.6-0.1-1.1-0.3-1.5-0.6c-0.4-0.3-0.8-0.6-1-0.9
          c-0.3-0.4-0.5-0.7-0.6-1.2c-0.1-0.3-0.2-0.6-0.2-1c0-0.3-0.1-0.7-0.1-1v-7.1h2.4v7.2c0,0.2,0,0.4,0.1,0.7c0,0.2,0.1,0.4,0.2,0.6
          c0.2,0.4,0.5,0.8,0.9,1c0.5,0.3,1.1,0.4,1.9,0.4c0.4,0,0.8,0,1.1-0.1c0.3-0.1,0.6-0.2,0.8-0.3c0.2-0.1,0.4-0.3,0.6-0.5
          c0.1-0.2,0.3-0.4,0.3-0.6c0.1-0.2,0.1-0.3,0.1-0.5c0-0.2,0-0.4,0-0.6v-7.2h2.4v7.1c0,0.3,0,0.6-0.1,0.8c0,0.3-0.1,0.6-0.2,0.9
          c-0.1,0.5-0.3,0.9-0.6,1.2c-0.3,0.4-0.6,0.7-1.1,1c-0.4,0.3-0.9,0.5-1.5,0.6C194.2,89.5,193.5,89.6,192.7,89.6"></path>
        <path fill="#F7AE1A" d="M212.5,89.4h-2.7l-3.9-4.5h-1.3v4.5h-2.4V77.7h3.7c0.6,0,1.1,0,1.5,0.1c0.4,0,0.8,0.1,1.1,0.2
          c1,0.2,1.7,0.6,2.2,1.2c0.6,0.6,0.8,1.3,0.8,2.2c0,0.5-0.1,1-0.3,1.4c-0.2,0.4-0.5,0.8-0.8,1c-0.3,0.3-0.7,0.5-1.2,0.7
          c-0.2,0.1-0.5,0.2-0.7,0.2L212.5,89.4z M204.7,82.8h1.1c0.5,0,0.9,0,1.2,0c0.3,0,0.6-0.1,0.8-0.1c0.5-0.1,0.8-0.3,1.1-0.6
          c0.2-0.2,0.3-0.5,0.3-0.9c0-0.3-0.1-0.6-0.3-0.8c-0.2-0.2-0.5-0.4-0.9-0.5c-0.2-0.1-0.5-0.1-0.8-0.1c-0.3,0-0.7,0-1.2,0h-1.4
          V82.8z"></path>
        <path fill="#F7AE1A" d="M227.2,89.4h-2.6l-1.5-3.3h-4.8l-1.5,3.3h-2.6l5.6-11.7h1.8L227.2,89.4z M219.2,84h2.9l-0.2-0.4
          c-0.4-0.9-0.8-1.8-1.3-2.9c-0.4,1-0.9,2-1.3,2.8L219.2,84z"></path>
        <path fill="#F7AE1A" d="M241,89.4h-2.1l-5.1-6.2c-0.6-0.7-1.1-1.3-1.6-2c0,0.7,0,1.4,0,2.2v6h-2.4V77.7h2.1l5.1,6.2
          c0.5,0.6,1.1,1.3,1.6,2c0-0.6,0-1.3,0-2v-6.2h2.4V89.4z"></path>
        <path fill="#F7AE1A" d="M251.7,89.6c-1.1,0-2.1-0.1-2.9-0.4c-0.9-0.3-1.6-0.7-2.2-1.2c-0.6-0.5-1.1-1.1-1.4-1.9
          c-0.3-0.7-0.5-1.6-0.5-2.5c0-0.9,0.2-1.8,0.5-2.5c0.3-0.8,0.8-1.4,1.4-2c0.6-0.5,1.3-1,2.2-1.3c0.8-0.3,1.8-0.4,2.9-0.4
          c0.3,0,0.5,0,0.8,0c0.3,0,0.5,0,0.8,0.1c0.2,0,0.5,0.1,0.7,0.1c0.2,0.1,0.4,0.1,0.6,0.2l0.3,0.1v2.1l-0.5-0.1
          c-0.4-0.1-0.8-0.2-1.2-0.3c-0.4-0.1-0.9-0.1-1.3-0.1c-0.7,0-1.3,0.1-1.9,0.3c-0.6,0.2-1.1,0.4-1.5,0.8c-0.4,0.3-0.7,0.8-1,1.3
          c-0.2,0.5-0.3,1.1-0.3,1.8c0,0.7,0.1,1.3,0.3,1.7c0.2,0.5,0.5,0.9,0.9,1.2c0.4,0.3,0.9,0.6,1.5,0.7c0.6,0.2,1.3,0.2,2,0.2
          c0.2,0,0.4,0,0.6,0c0.2,0,0.5,0,0.7-0.1c0.2,0,0.5-0.1,0.7-0.1c0.2,0,0.4-0.1,0.6-0.1l0.5-0.2v2.1l-0.3,0.1
          c-0.4,0.1-0.9,0.2-1.4,0.3C252.7,89.6,252.2,89.6,251.7,89.6"></path>
        <polygon fill="#F7AE1A" points="267.4,89.4 258.4,89.4 258.4,77.7 267,77.7 267,79.8 260.8,79.8 260.8,82.4 266.3,82.4
          266.3,84.4 260.8,84.4 260.8,87.3 267.4,87.3       "></polygon>
        <path fill="#F7AE1A" d="M283.9,89.6c-1.1,0-2.1-0.1-2.9-0.4c-0.9-0.3-1.6-0.7-2.2-1.2c-0.6-0.5-1.1-1.1-1.4-1.9
          c-0.3-0.7-0.5-1.6-0.5-2.5c0-0.9,0.2-1.8,0.5-2.5c0.3-0.8,0.8-1.4,1.4-2c0.6-0.5,1.3-1,2.2-1.3c0.8-0.3,1.8-0.4,2.9-0.4
          c0.3,0,0.5,0,0.8,0c0.3,0,0.5,0,0.8,0.1c0.2,0,0.5,0.1,0.7,0.1c0.2,0.1,0.4,0.1,0.6,0.2L287,78v2.1l-0.5-0.1
          c-0.4-0.1-0.8-0.2-1.2-0.3c-0.4-0.1-0.9-0.1-1.3-0.1c-0.7,0-1.3,0.1-1.9,0.3c-0.6,0.2-1.1,0.4-1.5,0.8c-0.4,0.3-0.7,0.8-1,1.3
          c-0.2,0.5-0.3,1.1-0.3,1.8c0,0.7,0.1,1.3,0.3,1.7c0.2,0.5,0.5,0.9,0.9,1.2c0.4,0.3,0.9,0.6,1.5,0.7c0.6,0.2,1.3,0.2,2,0.2
          c0.2,0,0.4,0,0.6,0c0.2,0,0.5,0,0.7-0.1c0.2,0,0.5-0.1,0.7-0.1c0.2,0,0.4-0.1,0.6-0.1l0.5-0.2v2.1l-0.3,0.1
          c-0.4,0.1-0.9,0.2-1.4,0.3C284.9,89.6,284.4,89.6,283.9,89.6"></path>
        <path fill="#F7AE1A" d="M296.4,89.6c-1,0-1.9-0.1-2.6-0.4c-0.8-0.3-1.5-0.7-2-1.2c-0.6-0.5-1-1.2-1.3-1.9
          c-0.3-0.7-0.4-1.6-0.4-2.4c0-0.9,0.2-1.7,0.5-2.5c0.3-0.7,0.7-1.4,1.3-1.9c0.6-0.5,1.2-1,2-1.2c0.8-0.3,1.6-0.4,2.6-0.4
          c1,0,1.9,0.1,2.6,0.4c0.8,0.3,1.5,0.7,2,1.2c0.6,0.5,1,1.2,1.3,1.9c0.3,0.7,0.4,1.6,0.4,2.4c0,0.9-0.2,1.7-0.5,2.4
          c-0.3,0.7-0.7,1.4-1.3,1.9c-0.6,0.5-1.2,1-2,1.2C298.2,89.5,297.4,89.6,296.4,89.6 M296.4,79.5c-0.6,0-1.1,0.1-1.6,0.3
          c-0.5,0.2-0.9,0.4-1.3,0.8c-0.3,0.3-0.6,0.7-0.8,1.2c-0.2,0.5-0.3,1.1-0.3,1.7c0,0.7,0.1,1.2,0.3,1.7c0.2,0.5,0.5,0.9,0.8,1.2
          c0.4,0.3,0.8,0.6,1.3,0.8c0.5,0.2,1,0.3,1.6,0.3c0.6,0,1.1-0.1,1.6-0.3c0.5-0.2,0.9-0.4,1.2-0.8c0.3-0.3,0.6-0.7,0.8-1.2
          c0.2-0.5,0.3-1.1,0.3-1.7c0-0.7-0.1-1.2-0.3-1.7c-0.2-0.5-0.5-0.9-0.8-1.2c-0.4-0.3-0.8-0.6-1.3-0.8
          C297.5,79.6,297,79.5,296.4,79.5"></path>
        <path fill="#F7AE1A" d="M320.1,89.4h-2.4v-5.7c0-0.7,0-1.4,0-2.1c-0.2,0.4-0.4,0.8-0.5,1.1l-3.3,6.7h-1.2l-3.3-6.7
          c-0.2-0.4-0.4-0.7-0.5-1.1c0,0.8,0,1.5,0,2.1v5.7h-2.4V77.7h2.9l3.1,6.4c0.2,0.5,0.5,1.1,0.8,1.7c0.3-0.7,0.6-1.3,0.8-1.7
          l3.1-6.4h2.9V89.4z"></path>
        <path fill="#F7AE1A" d="M326.7,89.4h-2.4V77.7h3.9c0.5,0,1,0,1.5,0.1c0.5,0.1,0.9,0.1,1.3,0.3c0.8,0.3,1.5,0.6,1.9,1.2
          c0.5,0.5,0.7,1.2,0.7,2c0,0.6-0.2,1.2-0.5,1.7c-0.3,0.5-0.7,0.9-1.3,1.2c-0.5,0.3-1.2,0.5-1.9,0.7c-1,0.2-2.1,0.3-3.4,0.2V89.4z
           M326.7,82.9c0.1,0,0.2,0,0.3,0c0.2,0,0.4,0,0.6,0c0.7,0,1.3,0,1.8-0.1c0.5-0.1,0.9-0.2,1.1-0.4c0.3-0.1,0.4-0.3,0.5-0.5
          c0.1-0.2,0.2-0.4,0.2-0.7c0-0.3-0.1-0.5-0.2-0.7c-0.2-0.2-0.5-0.4-0.8-0.5c-0.2-0.1-0.5-0.1-0.9-0.2c-0.3,0-0.7-0.1-1.2-0.1h-1.4
          V82.9z"></path>
        <path fill="#F7AE1A" d="M347.2,89.4h-2.6l-1.5-3.3h-4.8l-1.5,3.3h-2.6l5.6-11.7h1.8L347.2,89.4z M339.2,84h2.9l-0.2-0.4
          c-0.4-0.9-0.8-1.8-1.3-2.9c-0.4,1-0.9,2-1.3,2.8L339.2,84z"></path>
        <path fill="#F7AE1A" d="M361,89.4h-2.1l-5.1-6.2c-0.6-0.7-1.1-1.3-1.6-2c0,0.7,0,1.4,0,2.2v6h-2.4V77.7h2.1l5.1,6.2
          c0.5,0.6,1.1,1.3,1.6,2c0-0.6,0-1.3,0-2v-6.2h2.4V89.4z"></path>
        <polygon fill="#F7AE1A" points="371,89.4 368.6,89.4 368.6,84.8 363.5,77.7 366.3,77.7 369.8,82.7 373.3,77.7 376.1,77.7
          371,84.8      "></polygon>
        <polygon fill="#F7AE1A" points="40.2,106.8 39.4,106.8 38.6,59.1 25.1,73.6 24.5,73 36.1,56.1 1.8,54.1 1.8,53.2 36.2,52
          24.6,34.9 25.2,34.3 38.6,48.4 39.4,1.6 40.2,1.6 41.7,48.5 54.9,34.5 55.6,35.1 44.4,51.8 78.3,53.2 78.3,54.1 44.4,55.9
          55.6,72.3 54.9,72.9 41.6,59.1       "></polygon>
      </g>
    </g>
  </g>
</svg>